<svg width="48" height="48" viewBox="0 0 48 48" fill="none" xmlns="http://www.w3.org/2000/svg">
<path d="M0 24C0 10.7452 10.7452 0 24 0C37.2548 0 48 10.7452 48 24C48 37.2548 37.2548 48 24 48C10.7452 48 0 37.2548 0 24Z" fill="#FF8800"/>
<path fill-rule="evenodd" clip-rule="evenodd" d="M31.3144 17.2054C31.3144 21.2092 28.0504 24.4732 24.0464 24.4732C19.9991 24.4732 16.7351 21.2092 16.7351 17.2054C16.7351 13.2015 19.9991 9.9375 24.0464 9.9375C28.0504 9.9375 31.3144 13.2015 31.3144 17.2054ZM27.0494 17.2054C27.0494 15.5516 25.7002 14.2025 24.0464 14.2025C22.3492 14.2025 21 15.5516 21.0436 17.2054C21.0436 18.8592 22.3928 20.2082 24.0464 20.2082C25.7002 20.2082 27.0494 18.8592 27.0494 17.2054Z" fill="white"/>
<path d="M31.1838 28.6948C29.8782 29.5216 28.442 30.0874 26.9624 30.4356L31.0968 34.4394C31.9236 35.2664 31.9236 36.6154 31.0968 37.4424C30.27 38.2692 28.9208 38.2692 28.094 37.4424L24.09 33.4384L20.0862 37.4424C19.651 37.834 19.1288 38.0516 18.563 38.0516C17.9972 38.0516 17.475 37.8776 17.0398 37.4424C16.2129 36.6154 16.2129 35.2664 17.0398 34.4394L21.0872 30.392C19.6075 30.0438 18.1713 29.4782 16.8657 28.6512C15.8647 28.042 15.5601 26.7364 16.1258 25.7354C16.7787 24.7344 18.0843 24.4734 19.0852 25.0826C22.0446 26.954 25.9178 26.954 28.8772 25.0826C29.8782 24.4298 31.2274 24.7344 31.8366 25.7354C32.4894 26.7364 32.1848 28.0854 31.1838 28.6948Z" fill="white"/>
</svg>
