<svg width="48" height="48" viewBox="0 0 48 48" fill="none" xmlns="http://www.w3.org/2000/svg">
<path d="M48 24C48 10.7452 37.2548 0 24 0C10.7452 0 0 10.7452 0 24C0 37.2548 10.7452 48 24 48C37.2548 48 48 37.2548 48 24Z" fill="#0077FF"/>
<path d="M12 23.52C12 18.088 12 15.376 13.68 13.68C15.384 12 18.096 12 23.52 12H24.48C29.912 12 32.624 12 34.32 13.68C36 15.384 36 18.096 36 23.52V24.48C36 29.912 36 32.624 34.32 34.32C32.616 36 29.904 36 24.48 36H23.52C18.088 36 15.376 36 13.68 34.32C12 32.616 12 29.904 12 24.48V23.52Z" fill="white"/>
<path d="M24.768 29.288C19.296 29.288 16.176 25.544 16.048 19.304H18.8C18.888 23.88 20.904 25.816 22.504 26.216V19.304H25.088V23.248C26.664 23.08 28.328 21.28 28.888 19.296H31.464C31.2539 20.323 30.8344 21.2957 30.2315 22.1532C29.6286 23.0108 28.8553 23.7348 27.96 24.28C28.9591 24.7773 29.8415 25.4808 30.5489 26.344C31.2563 27.2072 31.7727 28.2106 32.064 29.288H29.224C28.616 27.392 27.096 25.92 25.088 25.72V29.288H24.776H24.768Z" fill="#0077FF"/>
</svg>
